<?xml version="1.0" encoding="UTF-8"?>
<svg xmlns="http://www.w3.org/2000/svg" height="1000" width="1071.429"><path d="M999.936 553.6v-464.256q0 -7.254 -5.301 -12.555t-12.555 -5.301h-892.8q-7.254 0 -12.555 5.301t-5.301 12.555v464.256q0 7.254 5.301 12.555t12.555 5.301h892.8q7.254 0 12.555 -5.301t5.301 -12.555zm71.424 -464.256v607.104q0 36.828 -26.226 63.054t-63.054 26.226h-303.552q0 20.646 8.928 43.245t17.856 39.618 8.928 24.273q0 14.508 -10.602 25.11t-25.11 10.602h-285.696q-14.508 0 -25.11 -10.602t-10.602 -25.11q0 -7.812 8.928 -24.552t17.856 -39.06 8.928 -43.524h-303.552q-36.828 0 -63.054 -26.226t-26.226 -63.054v-607.104q0 -36.828 26.226 -63.054t63.054 -26.226h892.8q36.828 0 63.054 26.226t26.226 63.054z" fill="#000000"/></svg>
