<svg width="661" height="661" viewBox="0 0 661 661" fill="none" xmlns="http://www.w3.org/2000/svg">
<path d="M284.804 221.174L299.677 206.302H320.707L317.35 180.714L269.097 200.7L284.804 221.174Z" fill="#0000D2"/>
<path d="M256.068 270.923V249.91L270.94 235.02L250.467 219.313L230.48 267.566L256.068 270.923Z" fill="#0000D2"/>
<path d="M343.685 180.731L340.311 206.302H361.323L376.213 221.174L391.921 200.701L343.685 180.731Z" fill="#0000D2"/>
<path d="M256.068 311.574V290.527L230.48 293.901L240.482 318.028L250.467 342.154L270.94 326.447L256.068 311.574Z" fill="#0000D2"/>
<path d="M390.06 235.038L404.932 249.91V270.94L430.52 267.566L410.533 219.33L390.06 235.038Z" fill="#0000D2"/>
<path d="M320.707 355.166H299.677L284.804 340.311L269.097 360.767L317.35 380.753L320.707 355.166Z" fill="#0000D2"/>
<path d="M404.932 290.527V311.574L390.077 326.43L410.533 342.137L430.52 293.901L404.932 290.527Z" fill="#0000D2"/>
<path d="M376.213 340.293L361.341 355.166H340.311L343.685 380.754L391.921 360.767L376.213 340.293Z" fill="#0000D2"/>
<path d="M551.848 447.358L531.061 467.101L510.275 447.358H493.158L521.912 474.668L493.158 501.96H510.275L531.061 482.234L551.848 501.96H568.964L540.211 474.668L568.964 447.358H551.848Z" fill="#002350"/>
<path d="M230.48 447.358H206.806C192.003 447.619 180.07 459.308 179.653 473.833V475.398C180.07 490.097 192.281 501.908 207.31 501.908V501.943H229.976V501.908C245.005 501.908 257.216 490.114 257.633 475.398V473.833C257.216 459.291 245.266 447.619 230.48 447.358ZM229.976 493.437V493.506H207.31V493.437C196.787 493.437 188.228 485 188.228 474.633C188.228 464.266 196.787 455.829 207.31 455.829H229.976C240.5 455.829 249.058 464.266 249.058 474.633C249.058 485 240.5 493.437 229.976 493.437Z" fill="#002350"/>
<path d="M330.726 447.358H281.899V501.96H330.222V501.925C345.251 501.925 357.462 490.132 357.879 475.416V473.85C357.462 459.308 345.512 447.636 330.726 447.375V447.358ZM330.222 493.437V493.506H291.397V455.847H330.222C340.746 455.847 349.304 464.283 349.304 474.65C349.304 485.018 340.746 493.454 330.222 493.454V493.437Z" fill="#002350"/>
<path d="M145.072 495.263L92.6792 447.358H78.1372V501.96H87.6347V454.733L139.28 501.96H154.57V447.358H145.072V495.263Z" fill="#002350"/>
<path d="M394.478 447.358H384.998V501.96H454.907V493.506H394.495V478.895H445.479V470.441H394.495V455.829H455.238V447.358H394.478Z" fill="#002350"/>
<path d="M591.282 447.741H587.264V466.301H591.282V447.741Z" fill="#002350"/>
<path d="M602.154 452.75H594.865V466.301H598.657V455.638H601.927C603.302 455.603 603.876 456.16 603.876 457.534V466.301H607.668V457.951C607.668 454.281 605.894 452.576 602.154 452.75Z" fill="#002350"/>
<path d="M612.191 454.072C610.799 455.237 610.068 457.099 610.068 459.464C610.068 461.5 610.66 463.117 611.843 464.422C613.078 465.779 614.521 466.283 617.287 466.283H622.453V463.396H618.366C616.783 463.396 616.07 463.222 615.322 462.7C614.382 462.039 613.947 460.978 613.947 459.499C613.947 456.768 615.13 455.638 617.966 455.638H622.488V452.75H617.322C614.782 452.75 613.339 453.133 612.208 454.089L612.191 454.072Z" fill="#002350"/>
<path d="M628.194 462.683H624.784V466.301H628.194V462.683Z" fill="#002350"/>
</svg>
