<?xml version="1.0" encoding="UTF-8"?>
<svg xmlns="http://www.w3.org/2000/svg" height="1000" width="1000"><path d="M714.24 500.032q0 -20.646 -16.74 -30.132l-285.696 -178.56q-17.298 -11.16 -36.27 -1.116 -18.414 10.044 -18.414 31.248v357.12q0 21.204 18.414 31.248 8.928 4.464 17.298 4.464 11.16 0 18.972 -5.58l285.696 -178.56q16.74 -9.486 16.74 -30.132zm285.696 0q0 53.568 -.558 83.7t-4.743 76.167 -12.555 82.305q-8.928 40.734 -38.502 68.634t-69.192 32.364q-123.876 13.95 -374.418 13.95t-374.418 -13.95q-39.618 -4.464 -69.471 -32.364t-38.781 -68.634q-7.812 -36.27 -11.997 -82.305t-4.743 -76.167 -.558 -83.7 .558 -83.7 4.743 -76.167 12.555 -82.305q8.928 -40.734 38.502 -68.634t69.192 -32.364q123.876 -13.95 374.418 -13.95t374.418 13.95q39.618 4.464 69.471 32.364t38.781 68.634q7.812 36.27 11.997 82.305t4.743 76.167 .558 83.7z" fill="#000000"/></svg>
